<?xml version="1.0" encoding="UTF-8" standalone="no"?>
<svg
   xmlns:dc="http://purl.org/dc/elements/1.1/"
   xmlns:cc="http://creativecommons.org/ns#"
   xmlns:rdf="http://www.w3.org/1999/02/22-rdf-syntax-ns#"
   xmlns:svg="http://www.w3.org/2000/svg"
   xmlns="http://www.w3.org/2000/svg"
   viewBox="0 0 195.82668 91.040001"
   height="91.040001"
   width="195.82668"
   xml:space="preserve"
   id="svg2"
   version="1.1"><metadata
     id="metadata8"><rdf:RDF><cc:Work
         rdf:about=""><dc:format>image/svg+xml</dc:format><dc:type
           rdf:resource="http://purl.org/dc/dcmitype/StillImage" /></cc:Work></rdf:RDF></metadata><defs
     id="defs6" /><g
     transform="matrix(1.3333333,0,0,-1.3333333,0,91.04)"
     id="g10"><g
       transform="scale(0.1)"
       id="g12"><path
         id="path14"
         style="fill:#f46d1b;fill-opacity:1;fill-rule:nonzero;stroke:none"
         d="M 522.109,378.828 H 467.715 V 237.324 h -47.52 v 141.504 h -54.394 v 40.867 h 156.308 v -40.867" /><path
         id="path16"
         style="fill:#f46d1b;fill-opacity:1;fill-rule:nonzero;stroke:none"
         d="m 527.695,419.695 h 145.352 v -38.054 h -97.832 v -31.934 h 89.394 V 312.93 h -89.394 v -34.746 h 100.39 v -40.86 h -147.91 v 182.371" /><path
         id="path18"
         style="fill:#f46d1b;fill-opacity:1;fill-rule:nonzero;stroke:none"
         d="m 808.379,354.559 c -2.539,18.39 -16.856,28.097 -36.777,28.097 -30.645,0 -42.403,-27.07 -42.403,-54.14 0,-27.09 11.758,-54.161 42.403,-54.161 22.226,0 35,12.774 36.777,33.719 h 47.519 c -2.558,-47 -37.031,-74.59 -83.281,-74.59 -55.156,0 -90.918,42.149 -90.918,95.032 0,52.871 35.762,95.019 90.918,95.019 39.336,0 82.012,-25.039 83.281,-68.976 h -47.519" /><path
         id="path20"
         style="fill:#f46d1b;fill-opacity:1;fill-rule:nonzero;stroke:none"
         d="m 865.313,419.695 h 47.5 v -66.414 h 62.578 v 66.414 h 47.519 V 237.324 h -47.519 v 75.098 h -62.578 v -75.098 h -47.5 v 182.371" /><path
         id="path22"
         style="fill:#f46d1b;fill-opacity:1;fill-rule:nonzero;stroke:none"
         d="m 126.699,121.074 c -2.558,18.387 -16.855,28.094 -36.7771,28.094 -30.6446,0 -42.4024,-27.078 -42.4024,-54.1485 0,-27.082 11.7578,-54.1601 42.4024,-54.1601 22.2261,0 35.0001,12.7734 36.7771,33.7304 h 47.52 C 171.66,27.5781 137.168,0 90.9375,0 35.7617,0 0,42.1484 0,95.0195 0,147.891 35.7617,190.039 90.9375,190.039 130.273,190.039 172.93,165 174.219,121.074 h -47.52" /><path
         id="path24"
         style="fill:#f46d1b;fill-opacity:1;fill-rule:nonzero;stroke:none"
         d="m 183.613,186.211 h 47.52 v -66.418 h 62.578 v 66.418 H 341.23 V 3.82813 H 293.711 V 78.9258 H 231.133 V 3.82813 h -47.52 V 186.211" /><path
         id="path26"
         style="fill:#f46d1b;fill-opacity:1;fill-rule:nonzero;stroke:none"
         d="m 410.664,71.7773 h 41.387 l -20.196,63.8477 h -0.507 z m -3.066,114.4337 h 48.281 L 524.082,3.82813 H 474.531 L 463.281,36.5234 H 399.688 L 388.184,3.82813 H 339.395 L 407.598,186.211" /><path
         id="path28"
         style="fill:#f46d1b;fill-opacity:1;fill-rule:nonzero;stroke:none"
         d="m 522.5,186.211 h 47.52 V 44.6953 h 85.058 V 3.82813 H 522.5 V 186.211" /><path
         id="path30"
         style="fill:#f46d1b;fill-opacity:1;fill-rule:nonzero;stroke:none"
         d="m 663.223,186.211 h 47.5 V 44.6953 h 85.058 V 3.82813 H 663.223 V 186.211" /><path
         id="path32"
         style="fill:#f46d1b;fill-opacity:1;fill-rule:nonzero;stroke:none"
         d="M 803.926,186.211 H 949.277 V 148.145 H 851.445 V 116.211 H 940.84 V 79.4336 H 851.445 V 44.6953 H 951.836 V 3.82813 H 803.926 V 186.211" /><path
         id="path34"
         style="fill:#f46d1b;fill-opacity:1;fill-rule:nonzero;stroke:none"
         d="m 963.027,186.211 h 48.793 l 63.34,-112.3946 h 0.51 V 186.211 h 44.7 V 3.82813 h -48.79 L 1008.24,117.5 h -0.5 V 3.82813 H 963.027 V 186.211" /><path
         id="path36"
         style="fill:#f46d1b;fill-opacity:1;fill-rule:nonzero;stroke:none"
         d="m 1305.78,3.82813 h -30.66 L 1272.33,23.75 C 1259.81,6.13281 1238.34,0 1221.49,0 c -55.18,0 -90.94,42.1484 -90.94,95.0195 0,52.8715 35.76,95.0195 90.94,95.0195 37.81,0 78.16,-20.176 82.5,-65.898 h -47.5 c -1.55,15.574 -16.86,25.027 -36.02,25.027 -30.66,0 -42.4,-27.078 -42.4,-54.1485 0,-27.082 11.74,-54.1601 42.4,-54.1601 23.5,0 39.34,10.9961 41.89,27.5976 h -33.22 v 35.242 h 76.64 V 3.82813" /><path
         id="path38"
         style="fill:#f46d1b;fill-opacity:1;fill-rule:nonzero;stroke:none"
         d="m 1320.82,186.211 h 145.33 v -38.066 h -97.83 v -31.934 h 89.42 V 79.4336 h -89.42 V 44.6953 h 100.39 V 3.82813 H 1320.82 V 186.211" /><path
         id="path40"
         style="fill:#231f20;fill-opacity:1;fill-rule:nonzero;stroke:none"
         d="m 360.5,678.633 h 145.887 l -13.739,-56.176 h -69.921 l -6.914,-29.516 h 72.945 l -12.703,-52.05 h -71.996 l -17.286,-73.95 H 311.41 l 49.09,211.692" /><path
         id="path42"
         style="fill:#231f20;fill-opacity:1;fill-rule:nonzero;stroke:none"
         d="m 526.219,678.633 h 75.363 l -49.09,-211.692 h -75.363 l 49.09,211.692" /><path
         id="path44"
         style="fill:#231f20;fill-opacity:1;fill-rule:nonzero;stroke:none"
         d="m 676.957,577.703 c 24.199,0 41.141,14.285 41.141,34.594 0,10.793 -7.953,16.191 -23.508,16.191 -4.496,0 -6.914,-0.316 -11.754,-1.273 l -11.41,-48.871 c 2.422,-0.321 2.765,-0.641 5.531,-0.641 z m -55.656,99.66 4.84,0.637 c 24.199,2.855 54.273,4.758 70.867,4.758 27.656,0 49.09,-3.172 65.34,-9.836 20.742,-8.57 33.187,-27.297 33.187,-49.832 0,-19.356 -6.566,-37.766 -19.015,-52.047 -10.719,-12.379 -20.395,-18.406 -40.45,-24.438 l -4.84,-1.585 c 2.075,-1.59 2.77,-2.227 3.805,-3.176 5.875,-6.668 23.508,-40.946 38.375,-74.903 h -82.969 c -10.718,30.153 -13.828,38.082 -28.003,72.364 l -16.594,-72.364 h -73.289 l 48.746,210.422" /><path
         id="path46"
         style="fill:#231f20;fill-opacity:1;fill-rule:nonzero;stroke:none"
         d="M 974.441,678.633 H 1157.3 l -12.77,-61.281 h -54.28 L 1054.3,466.941 h -75.362 l 35.952,150.411 h -58.827 l 18.378,61.281" /><path
         id="path48"
         style="fill:#231f20;fill-opacity:1;fill-rule:nonzero;stroke:none"
         d="m 1089.07,486.996 c 1.64,0 2.56,0.781 2.56,2.277 0,1.418 -0.85,2.204 -2.49,2.204 -0.35,0 -0.42,0 -0.78,-0.075 v -4.336 c 0.29,-0.07 0.43,-0.07 0.71,-0.07 z m -6.61,8.813 c 0.93,0.07 1.07,0.14 2.92,0.281 1.84,0.144 2.63,0.219 3.41,0.219 6.04,0 9.02,-2.348 9.02,-6.825 0,-2.699 -1.13,-4.332 -3.55,-5.257 l -0.28,-0.075 c 0.21,-0.144 0.28,-0.211 0.35,-0.351 0.64,-0.571 2.77,-3.77 4.55,-6.684 h -6.89 c -1.42,2.633 -1.85,3.344 -3.63,6.324 v -6.324 h -5.9 z m 7.11,-25.512 c 8.95,0 16.13,7.18 16.13,16.058 0,8.954 -7.18,16.133 -16.13,16.133 -8.88,0 -16.06,-7.179 -16.06,-16.058 0,-9.024 7.11,-16.133 16.06,-16.133 z m 0,34.465 c 10.16,0 18.4,-8.176 18.4,-18.332 0,-10.235 -8.17,-18.407 -18.4,-18.407 -10.3,0 -18.33,8.032 -18.33,18.407 0,10.226 8.1,18.332 18.33,18.332" /><path
         id="path50"
         style="fill:#231f20;fill-opacity:1;fill-rule:nonzero;stroke:none"
         d="m 780.828,472.32 c 21.188,-6.293 44.356,-9.82 66.004,-9.82 29.387,0 51.856,6.66 71.215,20.629 21.43,15.234 35.262,38.715 35.262,59.98 0,14.286 -6.223,27.297 -17.286,36.504 -8.64,6.977 -17.628,12.375 -35.953,20.946 l -14.863,6.98 c -4.844,2.539 -7.262,5.078 -7.262,7.938 0,7.613 9.68,13.324 22.817,13.324 9.828,0 21.543,-2.856 43.926,-10.176 l 15.449,57.305 c -16.742,4.55 -33.055,6.828 -49.352,6.828 -61.535,0 -108.894,-33.641 -108.894,-77.121 0,-22.852 15.211,-39.039 53.238,-56.813 17.973,-8.25 21.09,-10.476 21.09,-16.183 0,-8.571 -9.336,-13.969 -24.547,-13.969 -13.484,0 -30.766,4.129 -54.277,12.695 l -0.028,-0.008 -16.539,-59.039" /></g></g></svg>