<svg width="800" height="200" viewBox="0 0 800 200" fill="none" xmlns="http://www.w3.org/2000/svg">
<path d="M139.368 175V70.4601L143.969 61.2577L159.687 157.184L217.589 165.936L212.988 175H139.368Z" fill="#9A989A"/>
<path d="M143.969 165.936V61.2577H164.288V147.982H217.589V165.936H143.969Z" fill="#0066B3"/>
<path d="M72.9448 140.215C65.2883 140.215 58.319 138.742 52.0368 135.798C45.8528 132.853 40.5031 128.877 35.9877 123.871C31.5706 118.767 28.135 113.074 25.681 106.791C23.227 100.411 22 93.8834 22 87.2086C22 80.2393 23.2761 73.6135 25.8282 67.3313C28.4785 60.9509 32.0613 55.3068 36.5767 50.3988C41.1902 45.3926 46.589 41.4663 52.773 38.6196C59.0552 35.6748 65.9264 34.2025 73.3865 34.2025C80.9448 34.2025 87.816 35.7239 94 38.7669C100.282 41.8098 105.632 45.8834 110.049 50.9877C114.466 56.092 117.902 61.7853 120.356 68.0675C122.81 74.3497 124.037 80.8282 124.037 87.5031C124.037 94.3742 122.761 101 120.209 107.38C117.656 113.663 114.074 119.307 109.46 124.313C104.945 129.221 99.546 133.098 93.2638 135.945C87.0798 138.791 80.3068 140.215 72.9448 140.215ZM42.6135 87.2086C42.6135 91.7239 43.3006 96.092 44.6748 100.313C46.0491 104.534 48.0123 108.313 50.5644 111.65C53.2147 114.89 56.4049 117.491 60.135 119.454C63.9632 121.319 68.2822 122.252 73.092 122.252C78 122.252 82.3681 121.27 86.1963 119.307C90.0245 117.245 93.2147 114.546 95.7669 111.209C98.319 107.773 100.233 103.994 101.509 99.8712C102.883 95.6503 103.571 91.4294 103.571 87.2086C103.571 82.6933 102.834 78.3742 101.362 74.2515C99.9877 70.0307 97.9755 66.3006 95.3252 63.0613C92.773 59.7239 89.5828 57.1227 85.7546 55.2577C82.0245 53.2945 77.8037 52.3129 73.092 52.3129C68.0859 52.3129 63.6687 53.3436 59.8405 55.4049C56.1104 57.3681 52.9693 60.0184 50.4172 63.3558C47.865 66.6933 45.9018 70.4233 44.5276 74.546C43.2515 78.6687 42.6135 82.8896 42.6135 87.2086Z" fill="#9A989A"/>
<path d="M72.9448 131.012C65.2883 131.012 58.319 129.54 52.0368 126.595C45.8528 123.65 40.5031 119.675 35.9877 114.669C31.5706 109.564 28.135 103.871 25.681 97.589C23.227 91.2086 22 84.681 22 78.0061C22 71.0368 23.2761 64.411 25.8282 58.1288C28.4785 51.7485 32.0613 46.1043 36.5767 41.1963C41.1902 36.1902 46.589 32.2638 52.773 29.4172C59.0552 26.4724 65.9264 25 73.3865 25C80.9448 25 87.816 26.5215 94 29.5644C100.282 32.6074 105.632 36.681 110.049 41.7853C114.466 46.8896 117.902 52.5828 120.356 58.865C122.81 65.1472 124.037 71.6258 124.037 78.3006C124.037 85.1718 122.761 91.7975 120.209 98.1779C117.656 104.46 114.074 110.104 109.46 115.11C104.945 120.018 99.546 123.896 93.2638 126.742C87.0798 129.589 80.3068 131.012 72.9448 131.012ZM42.6135 78.0061C42.6135 82.5215 43.3006 86.8896 44.6748 91.1104C46.0491 95.3313 48.0123 99.1104 50.5644 102.448C53.2147 105.687 56.4049 108.288 60.135 110.252C63.9632 112.117 68.2822 113.049 73.092 113.049C78 113.049 82.3681 112.067 86.1963 110.104C90.0245 108.043 93.2147 105.344 95.7669 102.006C98.319 98.5705 100.233 94.7914 101.509 90.6687C102.883 86.4479 103.571 82.227 103.571 78.0061C103.571 73.4908 102.834 69.1718 101.362 65.0491C99.9877 60.8282 97.9755 57.0982 95.3252 53.8589C92.773 50.5215 89.5828 47.9202 85.7546 46.0552C82.0245 44.092 77.8037 43.1104 73.092 43.1104C68.0859 43.1104 63.6687 44.1411 59.8405 46.2025C56.1104 48.1656 52.9693 50.816 50.4172 54.1534C47.865 57.4908 45.9018 61.2209 44.5276 65.3436C43.2515 69.4663 42.6135 73.6871 42.6135 78.0061Z" fill="#ED1C24"/>
<path d="M135.257 167.894L61.3359 93.9731V84.803C69.3881 84.803 69.3881 88.8651 105.48 53.9934C109.784 52.4664 114.156 51.8417 118.599 52.1193C123.11 52.3275 127.379 53.334 131.405 55.1386C135.5 56.8738 139.074 59.2685 142.128 62.3225C145.252 65.4459 150.406 71.0356 152.21 75.0614C152.21 77.1733 152.297 80.9589 152.436 85.1234C152.574 89.288 151.88 93.3137 150.353 97.2006L195.018 98.9482V108.133L179.193 123.958L139.213 114.379L124.845 128.747L149.625 144.34V153.526L135.257 167.894ZM112.248 116.149L130.259 98.1376C132.064 96.333 133.14 94.216 133.487 91.7867C133.764 89.288 133.417 86.7198 132.446 84.0823C131.474 81.4447 129.878 79.0154 127.656 76.7943C125.297 74.4344 122.763 72.8727 120.056 72.1092C117.28 71.2763 114.608 71.1027 112.039 71.5886C109.541 72.0051 107.424 73.0809 105.688 74.8161L88.3014 92.2031L112.248 116.149Z" fill="#9A989A"/>
<path d="M135.068 158.691L61.1472 84.7706L93.839 52.0789C97.24 48.6778 101.058 46.2485 105.292 44.7909C109.595 43.2639 113.968 42.6392 118.41 42.9169C122.921 43.1251 127.19 44.1315 131.216 45.9362C135.311 47.6714 138.886 50.066 141.94 53.12C145.063 56.2434 147.527 59.818 149.332 63.8437C151.136 67.7307 152.108 71.7564 152.247 75.921C152.386 80.0855 151.692 84.1112 150.165 87.9982L194.829 98.9301L179.004 114.755L139.024 105.177L124.657 119.545L149.436 144.324L135.068 158.691ZM112.059 106.947L130.071 88.9352C131.875 87.1305 132.951 85.0136 133.298 82.5842C133.576 80.0855 133.229 77.5174 132.257 74.8798C131.285 72.2423 129.689 69.8129 127.468 67.5918C125.108 65.2319 122.574 63.6702 119.867 62.9067C117.091 62.0738 114.419 61.9003 111.851 62.3862C109.352 62.8026 107.235 63.8784 105.5 65.6137L88.1127 83.0007L112.059 106.947Z" fill="white"/>
<mask id="mask0_357_2" style="mask-type:alpha" maskUnits="userSpaceOnUse" x="130" y="58" width="54" height="68">
<rect x="130.166" y="58.957" width="52.9141" height="66.7178" fill="#D9D9D9"/>
</mask>
<g mask="url(#mask0_357_2)">
<path d="M139.368 175V70.4601L143.969 61.2576L159.687 157.184L219.89 168.236L212.988 175H139.368Z" fill="#9A989A"/>
<path d="M143.969 165.936V61.2576H164.288V147.982H217.589V165.936H143.969Z" fill="#0066B3"/>
</g>
<mask id="mask1_357_2" style="mask-type:alpha" maskUnits="userSpaceOnUse" x="79" y="42" width="49" height="45">
<rect x="79.5521" y="42.8528" width="48.3129" height="43.7117" fill="#D9D9D9"/>
</mask>
<g mask="url(#mask1_357_2)">
<path d="M72.9448 140.215C65.2883 140.215 58.319 138.742 52.0368 135.798C45.8528 132.853 40.5031 128.877 35.9877 123.871C31.5706 118.767 28.135 113.074 25.681 106.791C23.227 100.411 22 93.8834 22 87.2086C22 80.2393 23.2761 73.6135 25.8282 67.3313C28.4785 60.9509 32.0613 55.3068 36.5767 50.3988C41.1902 45.3926 46.589 41.4663 52.773 38.6196C59.0552 35.6748 65.9264 34.2025 73.3865 34.2025C80.9448 34.2025 87.816 35.7239 94 38.7669C100.282 41.8098 105.632 45.8834 110.049 50.9877C114.466 56.092 117.902 61.7853 120.356 68.0675C122.81 74.3497 124.037 80.8282 124.037 87.5031C124.037 94.3742 122.761 101 120.209 107.38C117.656 113.663 114.074 119.307 109.46 124.313C104.945 129.221 99.546 133.098 93.2638 135.945C87.0798 138.791 80.3068 140.215 72.9448 140.215ZM42.6135 87.2086C42.6135 91.7239 43.3006 96.092 44.6748 100.313C46.0491 104.534 48.0123 108.313 50.5644 111.65C53.2147 114.89 56.4049 117.491 60.135 119.454C63.9632 121.319 68.2822 122.252 73.092 122.252C78 122.252 82.3681 121.27 86.1963 119.307C90.0245 117.245 93.2147 114.546 95.7669 111.209C98.319 107.773 100.233 103.994 101.509 99.8712C102.883 95.6503 103.571 91.4294 103.571 87.2086C103.571 82.6933 102.834 78.3742 101.362 74.2515C99.9877 70.0307 97.9755 66.3006 95.3252 63.0613C92.773 59.7239 89.5828 57.1227 85.7546 55.2577C82.0245 53.2945 77.8037 52.3129 73.092 52.3129C68.0859 52.3129 63.6687 53.3436 59.8405 55.4049C56.1104 57.3681 52.9693 60.0184 50.4172 63.3558C47.865 66.6933 45.9018 70.4233 44.5276 74.546C43.2515 78.6687 42.6135 82.8896 42.6135 87.2086Z" fill="#9A989A"/>
<path d="M72.9448 131.012C65.2883 131.012 58.319 129.54 52.0368 126.595C45.8528 123.65 40.5031 119.675 35.9877 114.669C31.5706 109.564 28.135 103.871 25.681 97.589C23.227 91.2086 22 84.681 22 78.0061C22 71.0368 23.2761 64.411 25.8282 58.1288C28.4785 51.7485 32.0613 46.1043 36.5767 41.1963C41.1902 36.1902 46.589 32.2638 52.773 29.4172C59.0552 26.4724 65.9264 25 73.3865 25C80.9448 25 87.816 26.5215 94 29.5644C100.282 32.6074 105.632 36.681 110.049 41.7853C114.466 46.8896 117.902 52.5828 120.356 58.865C122.81 65.1472 124.037 71.6258 124.037 78.3006C124.037 85.1718 122.761 91.7975 120.209 98.1779C117.656 104.46 114.074 110.104 109.46 115.11C104.945 120.018 99.546 123.896 93.2638 126.742C87.0798 129.589 80.3068 131.012 72.9448 131.012ZM42.6135 78.0061C42.6135 82.5215 43.3006 86.8896 44.6748 91.1104C46.0491 95.3313 48.0123 99.1104 50.5644 102.448C53.2147 105.687 56.4049 108.288 60.135 110.252C63.9632 112.117 68.2822 113.049 73.092 113.049C78 113.049 82.3681 112.067 86.1963 110.104C90.0245 108.043 93.2147 105.344 95.7669 102.006C98.319 98.5705 100.233 94.7914 101.509 90.6687C102.883 86.4479 103.571 82.227 103.571 78.0061C103.571 73.4908 102.834 69.1718 101.362 65.0491C99.9877 60.8282 97.9755 57.0982 95.3252 53.8589C92.773 50.5215 89.5828 47.9202 85.7546 46.0552C82.0245 44.092 77.8037 43.1104 73.092 43.1104C68.0859 43.1104 63.6687 44.1411 59.8405 46.2025C56.1104 48.1656 52.9693 50.816 50.4172 54.1534C47.865 57.4908 45.9018 61.2209 44.5276 65.3436C43.2515 69.4663 42.6135 73.6871 42.6135 78.0061Z" fill="#ED1C24"/>
</g>
<mask id="path-13-outside-1_357_2" maskUnits="userSpaceOnUse" x="216" y="23" width="564" height="83" fill="black">
<rect fill="white" x="216" y="23" width="564" height="83"/>
<path d="M255.584 103.624C247.808 103.624 241.112 102.22 235.496 99.412C229.88 96.532 225.56 92.608 222.536 87.64C219.512 82.672 218 76.912 218 70.36C218 63.736 219.152 57.688 221.456 52.216C223.76 46.672 227 41.884 231.176 37.852C235.352 33.748 240.32 30.58 246.08 28.348C251.912 26.116 258.284 25 265.196 25C272.972 25 279.668 26.44 285.284 29.32C290.9 32.128 295.22 36.016 298.244 40.984C301.268 45.952 302.78 51.712 302.78 58.264C302.78 64.888 301.628 70.972 299.324 76.516C297.02 81.988 293.78 86.776 289.604 90.88C285.428 94.912 280.424 98.044 274.592 100.276C268.832 102.508 262.496 103.624 255.584 103.624ZM257.42 85.912C261.164 85.912 264.476 85.228 267.356 83.86C270.308 82.492 272.792 80.584 274.808 78.136C276.896 75.616 278.48 72.772 279.56 69.604C280.64 66.436 281.18 63.088 281.18 59.56C281.18 56.176 280.46 53.224 279.02 50.704C277.652 48.184 275.636 46.24 272.972 44.872C270.38 43.432 267.176 42.712 263.36 42.712C259.688 42.712 256.376 43.396 253.424 44.764C250.472 46.132 247.952 48.076 245.864 50.596C243.848 53.044 242.3 55.852 241.22 59.02C240.14 62.188 239.6 65.536 239.6 69.064C239.6 72.376 240.284 75.328 241.652 77.92C243.092 80.44 245.108 82.42 247.7 83.86C250.364 85.228 253.604 85.912 257.42 85.912Z"/>
<path d="M300.696 102.112L315.816 26.512H348.108C357.828 26.512 365.316 28.636 370.572 32.884C375.9 37.132 378.564 43.036 378.564 50.596C378.564 56.932 377.016 62.476 373.92 67.228C370.896 71.908 366.576 75.544 360.96 78.136C355.344 80.728 348.72 82.024 341.088 82.024H316.572L327.912 72.844L322.08 102.112H300.696ZM348.108 102.112L332.664 74.572H354.804L370.464 102.112H348.108ZM327.372 75.328L319.92 65.5H342.06C346.812 65.5 350.484 64.384 353.076 62.152C355.668 59.92 356.964 56.752 356.964 52.648C356.964 49.48 355.92 47.14 353.832 45.628C351.744 44.116 348.828 43.36 345.084 43.36H324.456L335.904 33.208L327.372 75.328Z"/>
<path d="M375.241 102.112L390.361 26.512H411.745L400.081 85.156H436.153L432.697 102.112H375.241Z"/>
<path d="M433.167 102.112L481.659 26.512H502.719L520.971 102.112H499.695L486.195 36.664H494.619L455.739 102.112H433.167ZM454.335 87.424L462.975 71.656H499.911L502.287 87.424H454.335Z"/>
<path d="M521.742 102.112L536.862 26.512H554.466L585.03 77.056L577.686 76.84L587.73 26.512H608.682L593.562 102.112H575.958L545.502 51.568L552.738 51.784L542.694 102.112H521.742Z"/>
<path d="M603.353 102.112L618.473 26.512H651.305C659.225 26.512 665.993 27.808 671.609 30.4C677.297 32.992 681.653 36.664 684.677 41.416C687.701 46.096 689.213 51.712 689.213 58.264C689.213 64.96 688.061 71.008 685.757 76.408C683.453 81.736 680.213 86.344 676.037 90.232C671.861 94.048 666.893 97 661.133 99.088C655.373 101.104 649.001 102.112 642.017 102.112H603.353ZM628.193 85.048H642.665C648.065 85.048 652.601 83.932 656.273 81.7C659.945 79.468 662.753 76.444 664.697 72.628C666.641 68.74 667.613 64.384 667.613 59.56C667.613 56.176 666.893 53.296 665.453 50.92C664.085 48.544 661.997 46.744 659.189 45.52C656.453 44.224 653.033 43.576 648.929 43.576H636.401L628.193 85.048Z"/>
<path d="M730.164 103.624C722.388 103.624 715.692 102.22 710.076 99.412C704.46 96.532 700.14 92.608 697.116 87.64C694.092 82.672 692.58 76.912 692.58 70.36C692.58 63.736 693.732 57.688 696.036 52.216C698.34 46.672 701.58 41.884 705.756 37.852C709.932 33.748 714.9 30.58 720.66 28.348C726.492 26.116 732.864 25 739.776 25C747.552 25 754.248 26.44 759.864 29.32C765.48 32.128 769.8 36.016 772.824 40.984C775.848 45.952 777.36 51.712 777.36 58.264C777.36 64.888 776.208 70.972 773.904 76.516C771.6 81.988 768.36 86.776 764.184 90.88C760.008 94.912 755.004 98.044 749.172 100.276C743.412 102.508 737.076 103.624 730.164 103.624ZM732 85.912C735.744 85.912 739.056 85.228 741.936 83.86C744.888 82.492 747.372 80.584 749.388 78.136C751.476 75.616 753.06 72.772 754.14 69.604C755.22 66.436 755.76 63.088 755.76 59.56C755.76 56.176 755.04 53.224 753.6 50.704C752.232 48.184 750.216 46.24 747.552 44.872C744.96 43.432 741.756 42.712 737.94 42.712C734.268 42.712 730.956 43.396 728.004 44.764C725.052 46.132 722.532 48.076 720.444 50.596C718.428 53.044 716.88 55.852 715.8 59.02C714.72 62.188 714.18 65.536 714.18 69.064C714.18 72.376 714.864 75.328 716.232 77.92C717.672 80.44 719.688 82.42 722.28 83.86C724.944 85.228 728.184 85.912 732 85.912Z"/>
</mask>
<path d="M255.584 103.624C247.808 103.624 241.112 102.22 235.496 99.412C229.88 96.532 225.56 92.608 222.536 87.64C219.512 82.672 218 76.912 218 70.36C218 63.736 219.152 57.688 221.456 52.216C223.76 46.672 227 41.884 231.176 37.852C235.352 33.748 240.32 30.58 246.08 28.348C251.912 26.116 258.284 25 265.196 25C272.972 25 279.668 26.44 285.284 29.32C290.9 32.128 295.22 36.016 298.244 40.984C301.268 45.952 302.78 51.712 302.78 58.264C302.78 64.888 301.628 70.972 299.324 76.516C297.02 81.988 293.78 86.776 289.604 90.88C285.428 94.912 280.424 98.044 274.592 100.276C268.832 102.508 262.496 103.624 255.584 103.624ZM257.42 85.912C261.164 85.912 264.476 85.228 267.356 83.86C270.308 82.492 272.792 80.584 274.808 78.136C276.896 75.616 278.48 72.772 279.56 69.604C280.64 66.436 281.18 63.088 281.18 59.56C281.18 56.176 280.46 53.224 279.02 50.704C277.652 48.184 275.636 46.24 272.972 44.872C270.38 43.432 267.176 42.712 263.36 42.712C259.688 42.712 256.376 43.396 253.424 44.764C250.472 46.132 247.952 48.076 245.864 50.596C243.848 53.044 242.3 55.852 241.22 59.02C240.14 62.188 239.6 65.536 239.6 69.064C239.6 72.376 240.284 75.328 241.652 77.92C243.092 80.44 245.108 82.42 247.7 83.86C250.364 85.228 253.604 85.912 257.42 85.912Z" fill="#231F20"/>
<path d="M300.696 102.112L315.816 26.512H348.108C357.828 26.512 365.316 28.636 370.572 32.884C375.9 37.132 378.564 43.036 378.564 50.596C378.564 56.932 377.016 62.476 373.92 67.228C370.896 71.908 366.576 75.544 360.96 78.136C355.344 80.728 348.72 82.024 341.088 82.024H316.572L327.912 72.844L322.08 102.112H300.696ZM348.108 102.112L332.664 74.572H354.804L370.464 102.112H348.108ZM327.372 75.328L319.92 65.5H342.06C346.812 65.5 350.484 64.384 353.076 62.152C355.668 59.92 356.964 56.752 356.964 52.648C356.964 49.48 355.92 47.14 353.832 45.628C351.744 44.116 348.828 43.36 345.084 43.36H324.456L335.904 33.208L327.372 75.328Z" fill="#231F20"/>
<path d="M375.241 102.112L390.361 26.512H411.745L400.081 85.156H436.153L432.697 102.112H375.241Z" fill="#231F20"/>
<path d="M433.167 102.112L481.659 26.512H502.719L520.971 102.112H499.695L486.195 36.664H494.619L455.739 102.112H433.167ZM454.335 87.424L462.975 71.656H499.911L502.287 87.424H454.335Z" fill="#231F20"/>
<path d="M521.742 102.112L536.862 26.512H554.466L585.03 77.056L577.686 76.84L587.73 26.512H608.682L593.562 102.112H575.958L545.502 51.568L552.738 51.784L542.694 102.112H521.742Z" fill="#231F20"/>
<path d="M603.353 102.112L618.473 26.512H651.305C659.225 26.512 665.993 27.808 671.609 30.4C677.297 32.992 681.653 36.664 684.677 41.416C687.701 46.096 689.213 51.712 689.213 58.264C689.213 64.96 688.061 71.008 685.757 76.408C683.453 81.736 680.213 86.344 676.037 90.232C671.861 94.048 666.893 97 661.133 99.088C655.373 101.104 649.001 102.112 642.017 102.112H603.353ZM628.193 85.048H642.665C648.065 85.048 652.601 83.932 656.273 81.7C659.945 79.468 662.753 76.444 664.697 72.628C666.641 68.74 667.613 64.384 667.613 59.56C667.613 56.176 666.893 53.296 665.453 50.92C664.085 48.544 661.997 46.744 659.189 45.52C656.453 44.224 653.033 43.576 648.929 43.576H636.401L628.193 85.048Z" fill="#231F20"/>
<path d="M730.164 103.624C722.388 103.624 715.692 102.22 710.076 99.412C704.46 96.532 700.14 92.608 697.116 87.64C694.092 82.672 692.58 76.912 692.58 70.36C692.58 63.736 693.732 57.688 696.036 52.216C698.34 46.672 701.58 41.884 705.756 37.852C709.932 33.748 714.9 30.58 720.66 28.348C726.492 26.116 732.864 25 739.776 25C747.552 25 754.248 26.44 759.864 29.32C765.48 32.128 769.8 36.016 772.824 40.984C775.848 45.952 777.36 51.712 777.36 58.264C777.36 64.888 776.208 70.972 773.904 76.516C771.6 81.988 768.36 86.776 764.184 90.88C760.008 94.912 755.004 98.044 749.172 100.276C743.412 102.508 737.076 103.624 730.164 103.624ZM732 85.912C735.744 85.912 739.056 85.228 741.936 83.86C744.888 82.492 747.372 80.584 749.388 78.136C751.476 75.616 753.06 72.772 754.14 69.604C755.22 66.436 755.76 63.088 755.76 59.56C755.76 56.176 755.04 53.224 753.6 50.704C752.232 48.184 750.216 46.24 747.552 44.872C744.96 43.432 741.756 42.712 737.94 42.712C734.268 42.712 730.956 43.396 728.004 44.764C725.052 46.132 722.532 48.076 720.444 50.596C718.428 53.044 716.88 55.852 715.8 59.02C714.72 62.188 714.18 65.536 714.18 69.064C714.18 72.376 714.864 75.328 716.232 77.92C717.672 80.44 719.688 82.42 722.28 83.86C724.944 85.228 728.184 85.912 732 85.912Z" fill="#231F20"/>
<path d="M255.584 103.624C247.808 103.624 241.112 102.22 235.496 99.412C229.88 96.532 225.56 92.608 222.536 87.64C219.512 82.672 218 76.912 218 70.36C218 63.736 219.152 57.688 221.456 52.216C223.76 46.672 227 41.884 231.176 37.852C235.352 33.748 240.32 30.58 246.08 28.348C251.912 26.116 258.284 25 265.196 25C272.972 25 279.668 26.44 285.284 29.32C290.9 32.128 295.22 36.016 298.244 40.984C301.268 45.952 302.78 51.712 302.78 58.264C302.78 64.888 301.628 70.972 299.324 76.516C297.02 81.988 293.78 86.776 289.604 90.88C285.428 94.912 280.424 98.044 274.592 100.276C268.832 102.508 262.496 103.624 255.584 103.624ZM257.42 85.912C261.164 85.912 264.476 85.228 267.356 83.86C270.308 82.492 272.792 80.584 274.808 78.136C276.896 75.616 278.48 72.772 279.56 69.604C280.64 66.436 281.18 63.088 281.18 59.56C281.18 56.176 280.46 53.224 279.02 50.704C277.652 48.184 275.636 46.24 272.972 44.872C270.38 43.432 267.176 42.712 263.36 42.712C259.688 42.712 256.376 43.396 253.424 44.764C250.472 46.132 247.952 48.076 245.864 50.596C243.848 53.044 242.3 55.852 241.22 59.02C240.14 62.188 239.6 65.536 239.6 69.064C239.6 72.376 240.284 75.328 241.652 77.92C243.092 80.44 245.108 82.42 247.7 83.86C250.364 85.228 253.604 85.912 257.42 85.912Z" stroke="white" stroke-width="4" mask="url(#path-13-outside-1_357_2)"/>
<path d="M300.696 102.112L315.816 26.512H348.108C357.828 26.512 365.316 28.636 370.572 32.884C375.9 37.132 378.564 43.036 378.564 50.596C378.564 56.932 377.016 62.476 373.92 67.228C370.896 71.908 366.576 75.544 360.96 78.136C355.344 80.728 348.72 82.024 341.088 82.024H316.572L327.912 72.844L322.08 102.112H300.696ZM348.108 102.112L332.664 74.572H354.804L370.464 102.112H348.108ZM327.372 75.328L319.92 65.5H342.06C346.812 65.5 350.484 64.384 353.076 62.152C355.668 59.92 356.964 56.752 356.964 52.648C356.964 49.48 355.92 47.14 353.832 45.628C351.744 44.116 348.828 43.36 345.084 43.36H324.456L335.904 33.208L327.372 75.328Z" stroke="white" stroke-width="4" mask="url(#path-13-outside-1_357_2)"/>
<path d="M375.241 102.112L390.361 26.512H411.745L400.081 85.156H436.153L432.697 102.112H375.241Z" stroke="white" stroke-width="4" mask="url(#path-13-outside-1_357_2)"/>
<path d="M433.167 102.112L481.659 26.512H502.719L520.971 102.112H499.695L486.195 36.664H494.619L455.739 102.112H433.167ZM454.335 87.424L462.975 71.656H499.911L502.287 87.424H454.335Z" stroke="white" stroke-width="4" mask="url(#path-13-outside-1_357_2)"/>
<path d="M521.742 102.112L536.862 26.512H554.466L585.03 77.056L577.686 76.84L587.73 26.512H608.682L593.562 102.112H575.958L545.502 51.568L552.738 51.784L542.694 102.112H521.742Z" stroke="white" stroke-width="4" mask="url(#path-13-outside-1_357_2)"/>
<path d="M603.353 102.112L618.473 26.512H651.305C659.225 26.512 665.993 27.808 671.609 30.4C677.297 32.992 681.653 36.664 684.677 41.416C687.701 46.096 689.213 51.712 689.213 58.264C689.213 64.96 688.061 71.008 685.757 76.408C683.453 81.736 680.213 86.344 676.037 90.232C671.861 94.048 666.893 97 661.133 99.088C655.373 101.104 649.001 102.112 642.017 102.112H603.353ZM628.193 85.048H642.665C648.065 85.048 652.601 83.932 656.273 81.7C659.945 79.468 662.753 76.444 664.697 72.628C666.641 68.74 667.613 64.384 667.613 59.56C667.613 56.176 666.893 53.296 665.453 50.92C664.085 48.544 661.997 46.744 659.189 45.52C656.453 44.224 653.033 43.576 648.929 43.576H636.401L628.193 85.048Z" stroke="white" stroke-width="4" mask="url(#path-13-outside-1_357_2)"/>
<path d="M730.164 103.624C722.388 103.624 715.692 102.22 710.076 99.412C704.46 96.532 700.14 92.608 697.116 87.64C694.092 82.672 692.58 76.912 692.58 70.36C692.58 63.736 693.732 57.688 696.036 52.216C698.34 46.672 701.58 41.884 705.756 37.852C709.932 33.748 714.9 30.58 720.66 28.348C726.492 26.116 732.864 25 739.776 25C747.552 25 754.248 26.44 759.864 29.32C765.48 32.128 769.8 36.016 772.824 40.984C775.848 45.952 777.36 51.712 777.36 58.264C777.36 64.888 776.208 70.972 773.904 76.516C771.6 81.988 768.36 86.776 764.184 90.88C760.008 94.912 755.004 98.044 749.172 100.276C743.412 102.508 737.076 103.624 730.164 103.624ZM732 85.912C735.744 85.912 739.056 85.228 741.936 83.86C744.888 82.492 747.372 80.584 749.388 78.136C751.476 75.616 753.06 72.772 754.14 69.604C755.22 66.436 755.76 63.088 755.76 59.56C755.76 56.176 755.04 53.224 753.6 50.704C752.232 48.184 750.216 46.24 747.552 44.872C744.96 43.432 741.756 42.712 737.94 42.712C734.268 42.712 730.956 43.396 728.004 44.764C725.052 46.132 722.532 48.076 720.444 50.596C718.428 53.044 716.88 55.852 715.8 59.02C714.72 62.188 714.18 65.536 714.18 69.064C714.18 72.376 714.864 75.328 716.232 77.92C717.672 80.44 719.688 82.42 722.28 83.86C724.944 85.228 728.184 85.912 732 85.912Z" stroke="white" stroke-width="4" mask="url(#path-13-outside-1_357_2)"/>
<path d="M243.808 166V126.24H261.728C263.595 126.24 265.312 126.632 266.88 127.416C268.485 128.163 269.867 129.189 271.024 130.496C272.181 131.765 273.077 133.203 273.712 134.808C274.384 136.413 274.72 138.037 274.72 139.68C274.72 141.323 274.459 142.891 273.936 144.384C273.413 145.84 272.667 147.165 271.696 148.36C270.725 149.517 269.568 150.469 268.224 151.216L276.96 166H266.824L259.208 153.176H252.992V166H243.808ZM252.992 145.168H261.392C262.139 145.168 262.792 144.944 263.352 144.496C263.949 144.011 264.435 143.357 264.808 142.536C265.181 141.715 265.368 140.763 265.368 139.68C265.368 138.597 265.144 137.664 264.696 136.88C264.285 136.059 263.763 135.424 263.128 134.976C262.493 134.528 261.821 134.304 261.112 134.304H252.992V145.168Z" fill="#F57E25"/>
<path d="M298.357 166.336C295.37 166.336 292.663 165.776 290.237 164.656C287.847 163.499 285.775 161.968 284.021 160.064C282.303 158.123 280.978 155.957 280.045 153.568C279.111 151.141 278.645 148.64 278.645 146.064C278.645 143.413 279.13 140.893 280.101 138.504C281.109 136.115 282.49 133.987 284.245 132.12C286.037 130.216 288.146 128.723 290.573 127.64C292.999 126.557 295.65 126.016 298.525 126.016C301.474 126.016 304.143 126.595 306.533 127.752C308.959 128.872 311.031 130.403 312.749 132.344C314.503 134.285 315.847 136.469 316.781 138.896C317.714 141.285 318.181 143.731 318.181 146.232C318.181 148.883 317.695 151.403 316.725 153.792C315.754 156.181 314.373 158.328 312.581 160.232C310.789 162.099 308.679 163.592 306.253 164.712C303.863 165.795 301.231 166.336 298.357 166.336ZM287.997 146.176C287.997 147.707 288.221 149.2 288.669 150.656C289.117 152.075 289.77 153.344 290.629 154.464C291.525 155.584 292.626 156.48 293.933 157.152C295.239 157.824 296.733 158.16 298.413 158.16C300.167 158.16 301.698 157.824 303.005 157.152C304.311 156.443 305.394 155.509 306.253 154.352C307.111 153.195 307.746 151.907 308.157 150.488C308.605 149.032 308.829 147.557 308.829 146.064C308.829 144.533 308.605 143.059 308.157 141.64C307.709 140.221 307.037 138.952 306.141 137.832C305.245 136.675 304.143 135.779 302.837 135.144C301.53 134.509 300.055 134.192 298.413 134.192C296.658 134.192 295.127 134.528 293.821 135.2C292.551 135.872 291.469 136.787 290.573 137.944C289.714 139.064 289.061 140.352 288.613 141.808C288.202 143.227 287.997 144.683 287.997 146.176Z" fill="#F57E25"/>
<path d="M356.36 155.808C356.36 158.085 355.744 159.989 354.512 161.52C353.317 163.013 351.693 164.133 349.64 164.88C347.586 165.627 345.328 166 342.864 166H323.488V126.24H345.608C347.474 126.24 349.08 126.744 350.424 127.752C351.805 128.723 352.85 129.992 353.56 131.56C354.306 133.128 354.68 134.752 354.68 136.432C354.68 138.299 354.194 140.091 353.224 141.808C352.253 143.488 350.834 144.757 348.968 145.616C351.245 146.288 353.037 147.483 354.344 149.2C355.688 150.917 356.36 153.12 356.36 155.808ZM347.008 153.96C347.008 153.101 346.84 152.355 346.504 151.72C346.168 151.048 345.72 150.525 345.16 150.152C344.637 149.741 344.002 149.536 343.256 149.536H332.672V158.216H342.864C343.648 158.216 344.338 158.029 344.936 157.656C345.57 157.283 346.074 156.779 346.448 156.144C346.821 155.509 347.008 154.781 347.008 153.96ZM332.672 134.08V142.312H341.688C342.36 142.312 342.976 142.163 343.536 141.864C344.133 141.565 344.618 141.117 344.992 140.52C345.365 139.885 345.552 139.101 345.552 138.168C345.552 137.272 345.384 136.525 345.048 135.928C344.749 135.331 344.338 134.883 343.816 134.584C343.293 134.248 342.696 134.08 342.024 134.08H332.672Z" fill="#F57E25"/>
<path d="M379.185 166.336C376.198 166.336 373.492 165.776 371.065 164.656C368.676 163.499 366.604 161.968 364.849 160.064C363.132 158.123 361.806 155.957 360.873 153.568C359.94 151.141 359.473 148.64 359.473 146.064C359.473 143.413 359.958 140.893 360.929 138.504C361.937 136.115 363.318 133.987 365.073 132.12C366.865 130.216 368.974 128.723 371.401 127.64C373.828 126.557 376.478 126.016 379.353 126.016C382.302 126.016 384.972 126.595 387.361 127.752C389.788 128.872 391.86 130.403 393.577 132.344C395.332 134.285 396.676 136.469 397.609 138.896C398.542 141.285 399.009 143.731 399.009 146.232C399.009 148.883 398.524 151.403 397.553 153.792C396.582 156.181 395.201 158.328 393.409 160.232C391.617 162.099 389.508 163.592 387.081 164.712C384.692 165.795 382.06 166.336 379.185 166.336ZM368.825 146.176C368.825 147.707 369.049 149.2 369.497 150.656C369.945 152.075 370.598 153.344 371.457 154.464C372.353 155.584 373.454 156.48 374.761 157.152C376.068 157.824 377.561 158.16 379.241 158.16C380.996 158.16 382.526 157.824 383.833 157.152C385.14 156.443 386.222 155.509 387.081 154.352C387.94 153.195 388.574 151.907 388.985 150.488C389.433 149.032 389.657 147.557 389.657 146.064C389.657 144.533 389.433 143.059 388.985 141.64C388.537 140.221 387.865 138.952 386.969 137.832C386.073 136.675 384.972 135.779 383.665 135.144C382.358 134.509 380.884 134.192 379.241 134.192C377.486 134.192 375.956 134.528 374.649 135.2C373.38 135.872 372.297 136.787 371.401 137.944C370.542 139.064 369.889 140.352 369.441 141.808C369.03 143.227 368.825 144.683 368.825 146.176Z" fill="#F57E25"/>
<path d="M433.791 134.304H421.695V166H412.511V134.304H400.359V126.24H433.791V134.304Z" fill="#F57E25"/>
<path d="M438.277 166V126.24H447.461V166H438.277Z" fill="#F57E25"/>
<path d="M452.77 145.784C452.77 143.357 453.218 140.987 454.114 138.672C455.01 136.32 456.316 134.192 458.034 132.288C459.751 130.384 461.842 128.872 464.306 127.752C466.77 126.595 469.57 126.016 472.706 126.016C476.439 126.016 479.668 126.819 482.394 128.424C485.156 130.029 487.21 132.12 488.554 134.696L481.498 139.624C480.9 138.205 480.098 137.104 479.09 136.32C478.119 135.536 477.036 134.995 475.842 134.696C474.684 134.36 473.564 134.192 472.482 134.192C470.727 134.192 469.196 134.547 467.89 135.256C466.583 135.928 465.5 136.843 464.642 138C463.783 139.157 463.148 140.445 462.738 141.864C462.327 143.283 462.122 144.701 462.122 146.12C462.122 147.688 462.364 149.2 462.85 150.656C463.335 152.112 464.026 153.4 464.922 154.52C465.855 155.64 466.975 156.536 468.282 157.208C469.588 157.843 471.026 158.16 472.594 158.16C473.714 158.16 474.852 157.973 476.01 157.6C477.167 157.227 478.231 156.648 479.202 155.864C480.21 155.043 480.975 153.979 481.498 152.672L489.002 157.096C488.218 159.037 486.93 160.699 485.138 162.08C483.346 163.461 481.311 164.525 479.034 165.272C476.794 165.981 474.572 166.336 472.37 166.336C469.495 166.336 466.844 165.757 464.418 164.6C462.028 163.405 459.956 161.837 458.202 159.896C456.484 157.917 455.14 155.715 454.17 153.288C453.236 150.824 452.77 148.323 452.77 145.784Z" fill="#F57E25"/>
<path d="M517.476 137.888C517.364 137.701 516.972 137.421 516.3 137.048C515.628 136.637 514.788 136.208 513.78 135.76C512.772 135.312 511.671 134.92 510.476 134.584C509.282 134.248 508.087 134.08 506.892 134.08C505.324 134.08 504.111 134.36 503.252 134.92C502.394 135.443 501.964 136.264 501.964 137.384C501.964 138.28 502.282 138.989 502.916 139.512C503.588 140.035 504.54 140.501 505.772 140.912C507.004 141.285 508.516 141.733 510.308 142.256C512.847 142.928 515.05 143.749 516.916 144.72C518.783 145.653 520.202 146.867 521.172 148.36C522.18 149.853 522.684 151.832 522.684 154.296C522.684 156.536 522.274 158.44 521.452 160.008C520.631 161.539 519.511 162.789 518.092 163.76C516.711 164.693 515.124 165.384 513.332 165.832C511.54 166.243 509.692 166.448 507.788 166.448C505.847 166.448 503.85 166.261 501.796 165.888C499.78 165.477 497.839 164.917 495.972 164.208C494.106 163.461 492.388 162.565 490.82 161.52L494.852 153.512C495.002 153.699 495.487 154.053 496.308 154.576C497.13 155.061 498.138 155.584 499.332 156.144C500.564 156.667 501.927 157.133 503.42 157.544C504.914 157.955 506.426 158.16 507.956 158.16C509.599 158.16 510.812 157.899 511.596 157.376C512.418 156.853 512.828 156.125 512.828 155.192C512.828 154.184 512.399 153.4 511.54 152.84C510.719 152.28 509.58 151.776 508.124 151.328C506.706 150.88 505.063 150.376 503.196 149.816C500.77 149.069 498.754 148.229 497.148 147.296C495.58 146.363 494.404 145.224 493.62 143.88C492.874 142.536 492.5 140.856 492.5 138.84C492.5 136.04 493.154 133.688 494.46 131.784C495.804 129.843 497.596 128.387 499.836 127.416C502.076 126.408 504.522 125.904 507.172 125.904C509.039 125.904 510.831 126.128 512.548 126.576C514.303 127.024 515.927 127.584 517.42 128.256C518.951 128.928 520.314 129.6 521.508 130.272L517.476 137.888Z" fill="#F57E25"/>
<path d="M541.144 166V126.24H550.328V157.936H569.592V166H541.144Z" fill="#F57E25"/>
<path d="M601.846 157.936V166H573.902V126.24H601.342V134.304H583.086V142.032H598.766V149.48H583.086V157.936H601.846Z" fill="#F57E25"/>
<path d="M617.449 126.24H627.361L641.025 166H631.617L628.537 157.096H616.161L613.137 166H603.729L617.449 126.24ZM627.025 150.768L622.377 135.48L617.617 150.768H627.025Z" fill="#F57E25"/>
<path d="M660.211 166.28C657.598 166.28 655.134 165.795 652.819 164.824C650.504 163.816 648.47 162.416 646.715 160.624C644.96 158.795 643.579 156.648 642.571 154.184C641.6 151.683 641.115 148.901 641.115 145.84C641.115 143.077 641.619 140.501 642.627 138.112C643.635 135.723 645.035 133.613 646.827 131.784C648.619 129.955 650.71 128.536 653.099 127.528C655.526 126.483 658.139 125.96 660.939 125.96C664.598 125.96 667.827 126.744 670.627 128.312C673.427 129.88 675.499 131.989 676.843 134.64L670.011 139.792C669.115 138.037 667.808 136.656 666.091 135.648C664.411 134.64 662.582 134.136 660.603 134.136C659.11 134.136 657.728 134.453 656.459 135.088C655.227 135.685 654.144 136.544 653.211 137.664C652.315 138.747 651.624 140.016 651.139 141.472C650.654 142.928 650.411 144.496 650.411 146.176C650.411 147.893 650.672 149.48 651.195 150.936C651.718 152.392 652.446 153.661 653.379 154.744C654.312 155.789 655.414 156.611 656.683 157.208C657.99 157.805 659.427 158.104 660.995 158.104C662.899 158.104 664.71 157.637 666.427 156.704C668.182 155.733 669.787 154.315 671.243 152.448V161.52C668.07 164.693 664.392 166.28 660.211 166.28ZM670.683 151.888H662.955V145.224H678.299V166H670.683V151.888Z" fill="#F57E25"/>
<path d="M701.45 166.336C698.277 166.336 695.57 165.813 693.33 164.768C691.09 163.685 689.261 162.229 687.842 160.4C686.461 158.533 685.434 156.424 684.762 154.072C684.128 151.683 683.81 149.181 683.81 146.568V126.24H692.994V146.568C692.994 148.061 693.144 149.517 693.442 150.936C693.741 152.317 694.226 153.549 694.898 154.632C695.57 155.715 696.429 156.573 697.474 157.208C698.557 157.843 699.882 158.16 701.45 158.16C703.056 158.16 704.4 157.843 705.482 157.208C706.565 156.536 707.424 155.659 708.058 154.576C708.693 153.456 709.16 152.205 709.458 150.824C709.757 149.443 709.906 148.024 709.906 146.568V126.24H719.09V146.568C719.09 149.331 718.736 151.907 718.026 154.296C717.354 156.685 716.309 158.795 714.89 160.624C713.472 162.416 711.642 163.816 709.402 164.824C707.2 165.832 704.549 166.336 701.45 166.336Z" fill="#F57E25"/>
<path d="M754.15 157.936V166H726.206V126.24H753.646V134.304H735.39V142.032H751.07V149.48H735.39V157.936H754.15Z" fill="#F57E25"/>
</svg>
