<svg width="56" height="16" viewBox="0 0 56 16" fill="none" xmlns="http://www.w3.org/2000/svg">
<line x1="1" y1="1.5" x2="12" y2="1.5" stroke="white"/>
<line x1="6.5" y1="2" x2="6.5" y2="15" stroke="white"/>
<line x1="15" y1="1.5" x2="23" y2="1.5" stroke="white"/>
<line x1="15.5" y1="2" x2="15.5" y2="15" stroke="white"/>
<line x1="16" y1="14.5" x2="23" y2="14.5" stroke="white"/>
<line x1="16" y1="7.5" x2="21" y2="7.5" stroke="white"/>
<path d="M34 1.5H29.9577C28.7432 1.5 27.6176 2.13726 26.9928 3.17875L26.9387 3.2689C26.6516 3.74729 26.5 4.29471 26.5 4.85261V5.18376C26.5 6.00607 26.911 6.77398 27.5952 7.23012V7.23012C27.8625 7.40831 28.1621 7.53242 28.4771 7.59542L31.6908 8.23816C32.5339 8.40677 33.2852 8.88029 33.8011 9.56812L33.9 9.7C34.2895 10.2193 34.5 10.8509 34.5 11.5V11.5C34.5 12.4443 34.0554 13.3334 33.3 13.9V13.9C32.7807 14.2895 32.1491 14.5 31.5 14.5H26" stroke="white" stroke-linejoin="round"/>
<line x1="37.5" y1="15" x2="37.5" y2="1" stroke="white"/>
<line x1="38" y1="14.5" x2="46" y2="14.5" stroke="white"/>
<line x1="45.5" y1="14" x2="45.5" y2="10" stroke="white"/>
<line x1="45.5" y1="9.5" x2="54.5" y2="9.5" stroke="white"/>
<path d="M45.5 15V8.67321C45.5 8.55859 45.5197 8.44482 45.5583 8.33688L47.763 2.16366C47.9051 1.76567 48.2821 1.5 48.7047 1.5H51.2953C51.7179 1.5 52.0949 1.76567 52.237 2.16366L54.4417 8.33688C54.4803 8.44482 54.5 8.55859 54.5 8.67321V15" stroke="white"/>
<line x1="34" y1="1.5" x2="37" y2="1.5" stroke="#00D1FF"/>
<line x1="45.5" y1="11" x2="45.5" y2="14" stroke="#00D1FF"/>
<line x1="23" y1="14.5" x2="26" y2="14.5" stroke="#00D1FF"/>
<line x1="12" y1="1.5" x2="15" y2="1.5" stroke="#00D1FF"/>
</svg>
